<svg width="300" height="300" viewBox="0 0 300 300" fill="none" xmlns="http://www.w3.org/2000/svg">
<circle cx="150" cy="150" r="150" fill="#FFCD1C"/>
<path d="M88 227.006C88 223.973 89.2213 220.394 91.6639 216.267C94.1065 212.139 95.749 209.613 96.5913 208.686C98.2758 206.665 99.9604 205.654 101.645 205.654C103.414 205.654 105.267 206.201 107.204 207.296C109.141 208.391 111.71 209.781 114.911 211.466C118.196 213.066 121.691 214.582 125.397 216.014C133.652 219.13 140.853 220.689 147.002 220.689C153.235 220.689 158.288 220.141 162.163 219.046C166.037 217.951 169.364 216.309 172.144 214.119C177.872 209.486 180.735 203.001 180.735 194.662C180.735 184.133 172.776 175.163 156.857 167.751C152.308 165.645 147.17 163.54 141.443 161.434C135.8 159.244 129.819 156.338 123.502 152.716C117.269 149.095 111.668 144.841 106.699 139.956C95.6648 129.006 90.1478 116.119 90.1478 101.295C90.1478 85.5443 96.5913 72.9101 109.478 63.3923C121.523 54.4641 135.715 50 152.056 50C170.249 50 185.199 53.9587 196.907 61.8762C203.308 66.0876 206.509 70.0042 206.509 73.626C206.509 75.5633 205.372 78.6797 203.098 82.9754C200.824 87.271 198.971 90.1769 197.539 91.693C196.191 93.2091 194.928 93.9671 193.749 93.9671C191.643 93.9671 188.863 92.8301 185.41 90.5559C182.041 88.2817 177.198 85.797 170.881 83.1017C164.563 80.4064 158.583 79.0587 152.94 79.0587C147.297 79.0587 142.748 79.522 139.295 80.4485C135.926 81.375 132.978 82.7648 130.451 84.6178C125.229 88.5765 122.618 94.3462 122.618 101.927C122.618 112.876 130.114 121.552 145.107 127.953L157.362 133.007C173.786 139.324 186.252 146.315 194.759 153.98C206.467 164.593 212.321 177.606 212.321 193.02C212.321 210.202 205.835 224.184 192.864 234.965C180.904 244.988 166.88 250 150.792 250C130.156 250 112.595 245.746 98.1074 237.239C91.3691 233.365 88 229.954 88 227.006Z" fill="white"/>
</svg>
